<?xml version="1.0" encoding="iso-8859-1"?>
<!-- Generator: Adobe Illustrator 24.3.0, SVG Export Plug-In . SVG Version: 6.00 Build 0)  -->
<svg version="1.1" id="Vrstva_1" xmlns="http://www.w3.org/2000/svg" xmlns:xlink="http://www.w3.org/1999/xlink" x="0px" y="0px"
	 viewBox="0 0 576.89 108.276" style="enable-background:new 0 0 576.89 108.276;" xml:space="preserve">
<g>
	<path d="M29.662,7.791c10.477,0,20.584,6.604,20.584,22.077c0,16.605-10.662,21.951-21.016,21.951H11.912V7.791H29.662z
		 M19.924,45.089h9.245c7.458,0,12.819-4.528,12.819-15.221c0-10.566-5.424-15.347-12.942-15.347h-9.122V45.089z"/>
	<path d="M69.662,7.791v44.028H61.65V7.791H69.662z"/>
	<path d="M99.122,7.791l6.779,28.87c0.123,0.566,0.308,1.447,0.37,2.076l0.925,5.787h0.431l0.986-5.787
		c0.062-0.629,0.247-1.51,0.37-2.076l6.779-28.87h11.771l7.272,43.902l-7.827,1.069l-4.623-27.926l-0.246-1.887l-0.863-7.044h-0.432
		l-1.048,6.981l-0.37,1.887l-6.594,27.045h-10.786l-6.533-27.045c-0.123-0.566-0.308-1.384-0.37-1.887l-1.048-6.981h-0.431
		l-0.863,7.044l-0.246,1.887l-4.623,27.926l-7.827-1.069l7.272-43.902H99.122z"/>
	<path d="M175.362,7.791v6.73h-22.125v11.07h19.599v6.73h-19.599v12.768h22.125v6.73h-30.137V7.791H175.362z"/>
	<path d="M197.489,7.791l15.346,26.668c0.246,0.503,0.678,1.258,0.863,1.761l2.403,5.849h0.432l-0.124-6.981V7.791h7.889v44.028
		h-10.785l-15.223-26.291l-0.863-1.698l-2.527-6.101h-0.493l0.124,5.661v28.429h-7.827V7.791H197.489z"/>
	<path d="M265.963,7.791l2.342,6.479l-19.291,25.159c-0.431,0.503-1.109,1.132-1.541,1.572l-3.944,3.774l0.123,0.44l4.869-0.126
		h19.66v6.73h-31.616l-2.219-6.479l19.66-25.662l1.232-1.51l3.451-3.333l-0.185-0.44l-4.869,0.125h-16.825v-6.73H265.963z"/>
	<path d="M308.49,7.791v6.73h-22.125v11.07h19.598v6.73h-19.598v12.768h22.125v6.73h-30.137V7.791H308.49z"/>
	<path d="M355.764,7.791l6.779,28.87c0.123,0.566,0.308,1.447,0.369,2.076l0.925,5.787h0.431l0.986-5.787
		c0.063-0.629,0.247-1.51,0.37-2.076l6.779-28.87h11.771l7.272,43.902l-7.827,1.069l-4.622-27.926l-0.246-1.887l-0.863-7.044h-0.432
		l-1.048,6.981l-0.37,1.887l-6.594,27.045H358.66l-6.533-27.045c-0.123-0.566-0.309-1.384-0.369-1.887l-1.049-6.981h-0.431
		l-0.863,7.044l-0.246,1.887l-4.622,27.926l-7.828-1.069l7.273-43.902H355.764z"/>
	<path d="M432.004,7.791v6.73h-22.126v11.07h19.599v6.73h-19.599v12.768h22.126v6.73h-30.138V7.791H432.004z"/>
	<path d="M471.881,7.791v7.296h-12.819v36.732h-8.013V15.087h-12.757V7.791H471.881z"/>
	<path d="M499.924,7.791c9.306,0,14.359,5.221,14.359,12.831c0,4.78-2.589,8.869-6.287,10.566c-0.246,0.126-0.738,0.252-1.664,0.377
		l-3.266,0.377l-0.062,0.44l4.067,1.95c0.863,0.44,1.664,1.258,2.096,2.013l7.519,13.083l-7.026,4.088l-8.135-14.466
		c-1.973-3.459-3.82-4.088-6.902-4.088h-6.656v16.856h-8.012V7.791H499.924z M487.967,28.484h11.34c4.253,0,6.779-2.705,6.779-7.107
		c0-3.962-2.65-6.856-6.902-6.856h-11.217V28.484z"/>
	<path d="M568.088,29.868c0,14.97-9.183,23.021-21.816,23.021c-12.635,0-21.879-7.988-21.879-23.021
		c0-15.095,9.244-23.271,21.879-23.271C558.905,6.596,568.088,14.772,568.088,29.868z M532.65,29.868
		c0,10.441,5.794,15.85,13.621,15.85c7.826,0,13.62-5.409,13.62-15.85c0-10.566-5.794-16.102-13.62-16.102
		C538.444,13.766,532.65,19.301,532.65,29.868z"/>
	<path d="M141.445,76.896l7.351,19.462c0.105,0.245,0.175,0.49,0.21,0.735l0.63,2.555h0.28l0.595-2.52l0.245-0.77l7.351-19.462
		l2.695,0.805l-9.171,24.118h-3.71l-9.206-24.118L141.445,76.896z"/>
	<path d="M187.087,89.603c0,8.576-5.146,12.741-11.831,12.741c-6.721,0-11.937-4.165-11.937-12.741
		c0-8.611,5.216-12.917,11.937-12.917C181.941,76.686,187.087,80.992,187.087,89.603z M166.225,89.603
		c0,6.791,3.991,10.221,9.031,10.221c4.97,0,8.926-3.431,8.926-10.221c0-6.896-3.956-10.431-8.926-10.431
		C170.215,79.171,166.225,82.707,166.225,89.603z"/>
	<path d="M209.626,79.696l-1.75,2.135c-1.995-1.89-3.746-2.625-6.861-2.625c-3.955,0-6.266,1.89-6.266,4.271
		c0,2.625,2.205,3.78,6.826,4.515c5.846,0.91,8.576,2.8,8.576,6.966c0,4.201-3.081,7.386-9.416,7.386
		c-5.006,0-7.316-1.12-9.661-3.29l1.82-2.17c1.96,2.03,4.095,2.905,7.911,2.905c3.71,0,6.476-1.575,6.476-4.655
		c0-2.73-1.715-3.956-6.65-4.656c-5.951-0.84-8.786-2.835-8.786-6.826c0-3.78,3.396-6.966,9.171-6.966
		C205.111,76.686,207.631,77.876,209.626,79.696z M197.166,70.525l3.85,3.781l3.851-3.781l1.575,1.4l-4.025,3.885h-2.871
		l-4.025-3.885L197.166,70.525z"/>
	<path d="M233.637,82.217c-2.03-2.1-4.48-2.975-7.281-2.975c-5.566,0-9.276,3.815-9.276,10.361c0,6.791,3.991,10.186,9.206,10.186
		c2.345,0,4.656-0.735,6.196-1.995v-8.016h2.765v9.346c-2.345,1.995-4.97,3.22-8.996,3.22c-6.826,0-12.111-4.2-12.111-12.741
		c0-8.191,4.9-12.917,12.181-12.917c3.605,0,6.861,1.19,9.066,3.465L233.637,82.217z"/>
	<path d="M251.974,83.757v-2.87c0-2.695,1.855-4.34,4.656-4.34c1.155,0,2.135,0.245,3.115,0.56l-0.455,2.275
		c-0.805-0.385-1.47-0.595-2.345-0.595c-1.505,0-2.275,0.77-2.275,2.345v2.625h11.516v18.062h-2.73V85.962h-8.786v15.856h-2.695
		V85.962h-2.905v-2.206H251.974z M266.256,77.526v2.59h-2.835v-2.59H266.256z"/>
	<path d="M275.319,83.757v3.536l0.175,0.035l0.945-2.03c0.245-0.63,2.205-2.03,5.041-2.03c4.306,0,6.441,2.415,6.441,6.791v11.761
		h-2.73V90.338c0-3.15-1.47-4.656-4.235-4.656c-3.605,0-5.636,2.555-5.636,6.125v10.011h-2.73V83.757H275.319z"/>
	<path d="M293.658,85.402c2.031-1.365,3.956-2.135,6.721-2.135c4.271,0,6.686,1.925,6.686,6.371v8.086l1.785,3.43l-2.379,1.19
		l-1.191-2.275c-0.279-0.56-0.42-1.015-0.524-1.505h-0.175l-1.086,2.03c-0.279,0.42-1.994,1.715-4.83,1.715
		c-4.34,0-5.881-2.485-5.881-5.321c0-3.956,3.431-6.406,10.151-6.406c0.735,0,1.12,0,1.4,0.035v-1.365
		c0-2.135-1.085-3.71-4.096-3.71c-2.136,0-3.955,0.84-5.355,1.925L293.658,85.402z M304.335,92.613
		c-0.351-0.035-0.7-0.035-1.085-0.035c-5.602,0-7.736,1.575-7.736,4.2c0,2.24,1.4,3.291,3.641,3.291
		c2.975,0,5.181-2.275,5.181-5.881V92.613z"/>
	<path d="M316.023,77.316v20.862c0,1.155,0.49,1.75,1.996,1.575v2.38c-3.15,0.21-4.727-0.875-4.727-3.535V77.316H316.023z"/>
	<path d="M335.904,79.276v4.48h4.936v2.206h-4.936v11.971c0,1.295,0.84,1.925,2.1,1.925c0.945,0,1.75-0.175,2.416-0.56l0.56,2.31
		c-0.91,0.385-2.171,0.7-3.466,0.7c-2.45,0-4.34-1.12-4.34-3.815V85.962h-2.801v-2.206h2.801v-4.48H335.904z"/>
	<path d="M347.873,77.316v9.976l0.176,0.035l0.944-2.03c0.28-0.63,2.205-2.03,5.04-2.03c4.307,0,6.441,2.415,6.441,6.791v11.761
		h-2.73V90.338c0-3.15-1.471-4.656-4.235-4.656c-3.605,0-5.636,2.555-5.636,6.125v10.011h-2.73V77.316H347.873z"/>
	<path d="M381.789,92.928h-13.861c0.07,4.901,2.521,7.036,6.057,7.036c1.959,0,3.465-0.525,5.074-1.996l1.436,1.89
		c-2.275,1.786-3.71,2.451-6.545,2.451c-5.321,0-8.752-3.571-8.752-9.486c0-5.635,3.326-9.556,8.682-9.556
		C377.729,83.267,381.93,85.297,381.789,92.928z M368.068,90.792h10.921c-0.14-3.395-2.171-5.285-5.181-5.285
		S368.628,87.257,368.068,90.792z"/>
	<path d="M399.148,85.227l-1.295,2.065c-1.26-0.875-3.08-1.715-5.146-1.715c-2.976,0-4.2,1.33-4.2,2.905c0,2.1,2.24,2.485,4.9,2.976
		c3.255,0.56,6.266,1.785,6.266,5.215c0,3.64-3.221,5.636-7.386,5.636c-3.011,0-5.321-0.945-7.351-2.521l1.295-2.065
		c1.82,1.47,3.85,2.31,6.195,2.31c2.905,0,4.551-1.295,4.551-3.15s-1.61-2.59-4.586-3.115c-3.5-0.56-6.58-1.645-6.58-5.076
		c0-3.15,2.59-5.425,6.931-5.425C395.299,83.267,397.434,84.037,399.148,85.227z"/>
	<path d="M407.372,77.526v2.59h-2.835v-2.59H407.372z M407.303,83.757v18.062h-2.73V83.757H407.303z"/>
	<path d="M426.133,85.227l-1.295,2.065c-1.26-0.875-3.08-1.715-5.146-1.715c-2.976,0-4.2,1.33-4.2,2.905c0,2.1,2.24,2.485,4.9,2.976
		c3.255,0.56,6.266,1.785,6.266,5.215c0,3.64-3.221,5.636-7.386,5.636c-3.011,0-5.321-0.945-7.351-2.521l1.295-2.065
		c1.82,1.47,3.85,2.31,6.195,2.31c2.905,0,4.551-1.295,4.551-3.15s-1.61-2.59-4.586-3.115c-3.5-0.56-6.58-1.645-6.58-5.076
		c0-3.15,2.59-5.425,6.931-5.425C422.283,83.267,424.418,84.037,426.133,85.227z"/>
</g>
<g>
</g>
<g>
</g>
<g>
</g>
<g>
</g>
<g>
</g>
<g>
</g>
</svg>
